REM DIRINDEX 1\2,1\4,1\5,1\6,1\7,1\3\8,1\3\9,1\3\10
REM DIRNAME cjc113,folder01,folder02,folder03,folder04,folder05,folder06,folder07,folder08,folder09
TITLE ""
FILE "DB4500_5th_1A_14.mp3" MP3
  TRACK 01 AUDIO
    TITLE "8:cjc113_0578"
    INDEX 01 00:00:00
  TRACK 02 AUDIO
    TITLE "0:"
    INDEX 01 00:01:46
  TRACK 03 AUDIO
    TITLE "9:cjc113_0579"
    INDEX 01 00:01:66
  TRACK 04 AUDIO
    TITLE "0:"
    INDEX 01 00:02:73
  TRACK 05 AUDIO
    TITLE "10:cjc113_0580"
    INDEX 01 00:03:31
  TRACK 06 AUDIO
    TITLE "0:"
    INDEX 01 00:07:19
  TRACK 07 AUDIO
    TITLE "8:cjc113_0581"
    INDEX 01 00:07:64
  TRACK 08 AUDIO
    TITLE "0:"
    INDEX 01 00:09:06
  TRACK 09 AUDIO
    TITLE "9:cjc113_0582"
    INDEX 01 00:09:26
  TRACK 10 AUDIO
    TITLE "0:"
    INDEX 01 00:10:55
  TRACK 11 AUDIO
    TITLE "10:cjc113_0583"
    INDEX 01 00:10:70
  TRACK 12 AUDIO
    TITLE "0:"
    INDEX 01 00:14:23
  TRACK 13 AUDIO
    TITLE "8:cjc113_0584"
    INDEX 01 00:14:45
  TRACK 14 AUDIO
    TITLE "0:"
    INDEX 01 00:15:62
  TRACK 15 AUDIO
    TITLE "9:cjc113_0585"
    INDEX 01 00:16:08
  TRACK 16 AUDIO
    TITLE "0:"
    INDEX 01 00:17:18
  TRACK 17 AUDIO
    TITLE "10:cjc113_0586"
    INDEX 01 00:17:65
  TRACK 18 AUDIO
    TITLE "0:"
    INDEX 01 00:20:16
  TRACK 19 AUDIO
    TITLE "8:cjc113_0587"
    INDEX 01 00:20:37
  TRACK 20 AUDIO
    TITLE "0:"
    INDEX 01 00:21:58
  TRACK 21 AUDIO
    TITLE "9:cjc113_0588"
    INDEX 01 00:22:05
  TRACK 22 AUDIO
    TITLE "0:"
    INDEX 01 00:23:34
  TRACK 23 AUDIO
    TITLE "10:cjc113_0589"
    INDEX 01 00:24:10
  TRACK 24 AUDIO
    TITLE "0:"
    INDEX 01 00:27:53
  TRACK 25 AUDIO
    TITLE "8:cjc113_0590"
    INDEX 01 00:28:31
  TRACK 26 AUDIO
    TITLE "0:"
    INDEX 01 00:29:52
  TRACK 27 AUDIO
    TITLE "9:cjc113_0591"
    INDEX 01 00:29:70
  TRACK 28 AUDIO
    TITLE "0:"
    INDEX 01 00:32:07
  TRACK 29 AUDIO
    TITLE "10:cjc113_0592"
    INDEX 01 00:32:25
  TRACK 30 AUDIO
    TITLE "0:"
    INDEX 01 00:35:66
  TRACK 31 AUDIO
    TITLE "8:cjc113_0593"
    INDEX 01 00:36:36
  TRACK 32 AUDIO
    TITLE "0:"
    INDEX 01 00:37:36
  TRACK 33 AUDIO
    TITLE "9:cjc113_0594"
    INDEX 01 00:37:52
  TRACK 34 AUDIO
    TITLE "0:"
    INDEX 01 00:39:35
  TRACK 35 AUDIO
    TITLE "10:cjc113_0595"
    INDEX 01 00:39:52
  TRACK 36 AUDIO
    TITLE "0:"
    INDEX 01 00:41:47
  TRACK 37 AUDIO
    TITLE "8:cjc113_0596"
    INDEX 01 00:42:18
  TRACK 38 AUDIO
    TITLE "0:"
    INDEX 01 00:43:27
  TRACK 39 AUDIO
    TITLE "9:cjc113_0597"
    INDEX 01 00:43:48
  TRACK 40 AUDIO
    TITLE "0:"
    INDEX 01 00:46:07
  TRACK 41 AUDIO
    TITLE "10:cjc113_0598"
    INDEX 01 00:46:25
  TRACK 42 AUDIO
    TITLE "0:"
    INDEX 01 00:49:29
  TRACK 43 AUDIO
    TITLE "8:cjc113_0599"
    INDEX 01 00:50:01
  TRACK 44 AUDIO
    TITLE "0:"
    INDEX 01 00:51:28
  TRACK 45 AUDIO
    TITLE "9:cjc113_0600"
    INDEX 01 00:51:44
  TRACK 46 AUDIO
    TITLE "0:"
    INDEX 01 00:52:55
  TRACK 47 AUDIO
    TITLE "10:cjc113_0601"
    INDEX 01 00:53:00
  TRACK 48 AUDIO
    TITLE "0:"
    INDEX 01 00:56:14
  TRACK 49 AUDIO
    TITLE "8:cjc113_0602"
    INDEX 01 00:56:59
  TRACK 50 AUDIO
    TITLE "0:"
    INDEX 01 00:57:72
  TRACK 51 AUDIO
    TITLE "9:cjc113_0603"
    INDEX 01 00:58:18
  TRACK 52 AUDIO
    TITLE "0:"
    INDEX 01 00:59:65
  TRACK 53 AUDIO
    TITLE "10:cjc113_0604"
    INDEX 01 01:00:06
  TRACK 54 AUDIO
    TITLE "0:"
    INDEX 01 01:04:05
  TRACK 55 AUDIO
    TITLE "8:cjc113_0605"
    INDEX 01 01:04:48
  TRACK 56 AUDIO
    TITLE "0:"
    INDEX 01 01:05:46
  TRACK 57 AUDIO
    TITLE "9:cjc113_0606"
    INDEX 01 01:05:62
  TRACK 58 AUDIO
    TITLE "0:"
    INDEX 01 01:07:00
  TRACK 59 AUDIO
    TITLE "10:cjc113_0607"
    INDEX 01 01:07:19
  TRACK 60 AUDIO
    TITLE "0:"
    INDEX 01 01:10:04
  TRACK 61 AUDIO
    TITLE "8:cjc113_0608"
    INDEX 01 01:10:49
  TRACK 62 AUDIO
    TITLE "0:"
    INDEX 01 01:12:07
  TRACK 63 AUDIO
    TITLE "9:cjc113_0609"
    INDEX 01 01:12:21
  TRACK 64 AUDIO
    TITLE "0:"
    INDEX 01 01:13:59
  TRACK 65 AUDIO
    TITLE "10:cjc113_0610"
    INDEX 01 01:14:06
  TRACK 66 AUDIO
    TITLE "0:"
    INDEX 01 01:17:45
